<?xml version="1.0" encoding="iso-8859-1"?><svg version="1.1" id="Capa_1" xmlns="http://www.w3.org/2000/svg" xmlns:xlink="http://www.w3.org/1999/xlink" x="0px" y="0px"
	 viewBox="0 0 47.959 47.959" style="enable-background:new 0 0 47.959 47.959;" xml:space="preserve"><g><path style="fill:#010002;" d="M31.498,24.182v-7.721h-7.721c-4.034,0-7.316,3.282-7.316,7.316v7.719h7.717
		C28.214,31.498,31.498,28.215,31.498,24.182z M21.461,23.778c0-1.277,1.039-2.316,2.316-2.316h2.721v2.721
		c0,1.276-1.041,2.314-2.32,2.314h-2.717C21.461,26.498,21.461,23.778,21.461,23.778z"/><path style="fill:#010002;" d="M8.184,16.382v23.393h23.392c4.519,0,8.196-3.678,8.196-8.198V8.186H16.38
		C11.861,8.186,8.184,11.863,8.184,16.382z M34.772,31.576c0,1.764-1.433,3.198-3.196,3.198H13.184V16.382
		c0-1.763,1.434-3.196,3.196-3.196h18.392C34.772,13.186,34.772,31.576,34.772,31.576z"/><path style="fill:#010002;" d="M47.959,40.642V0.002H7.316C3.282,0.002,0,3.283,0,7.318v40.639h40.641
		C44.675,47.958,47.959,44.676,47.959,40.642z M5,7.319c0-1.277,1.039-2.317,2.316-2.317h35.643v35.64
		c0,1.277-1.04,2.316-2.318,2.316H5V7.319z"/></g><g></g><g></g><g></g><g></g><g></g><g></g><g></g><g></g><g></g><g></g><g></g><g></g><g></g><g></g><g></g></svg>
